<svg width="640" height="320" viewBox="0 0 640 320" xmlns="http://www.w3.org/2000/svg" style="overflow:display" preserveAspectRatio="xMinYMin meet" overflow="visible">
<defs>
	<style>
	.data-series path.line { fill-opacity: 0; }
	.data-series path.line.dotted { stroke-dasharray: 12 20 }
	.data-series circle { display: none; }
	.data-series:hover path.line, .data-series.on path.line { stroke-width: 5; }
	.data-series:hover circle, .data-series.on circle { display: inline; }
	.data-series circle:hover, .data-series circle.on { r: 6px!important; fill: black; }
	.grid { font-family: "Helvetica Neue",Helvetica,Arial,"Lucida Grande",sans-serif; }
	.grid line { stroke: rgb(0,0,0); stroke-width: 2; stroke-linecap: round; }
	.grid.grid-x text { text-anchor: middle; dominant-baseline: hanging; transform: translateY(10px); }
	.grid.grid-y text { text-anchor: end; dominant-baseline: middle; transform: translateX(-10px); }
	</style>
</defs>
<g class="grid grid-y">
	<line x1="60" y1="270" x2="630" y2="270" data-left="60"></line>
	<text x="60" y="270" text-anchor="end">0</text>
	<text x="60" y="218" text-anchor="end">20</text>
	<text x="60" y="166" text-anchor="end">40</text>
	<text x="60" y="114" text-anchor="end">60</text>
	<text x="60" y="62" text-anchor="end">80</text>
	<text x="60" y="10" text-anchor="end">100</text>
	<text style="text-anchor:middle;dominant-baseline:hanging;font-weight:bold;transform: translateY(140px) rotate(-90deg);">EVs (%)</text>
</g>
<g class="grid grid-x">
	<line class="tick" x1="202.5" y1="270" x2="202.5" y2="275"></line>
	<text x="202.5" y="270" text-anchor="middle">2030</text>
	<line class="tick" x1="406.071428571429" y1="270" x2="406.071428571429" y2="275"></line>
	<text x="406.071428571429" y="270" text-anchor="middle">2040</text>
	<line class="tick" x1="609.642857142857" y1="270" x2="609.642857142857" y2="275"></line>
	<text x="609.642857142857" y="270" text-anchor="middle">2050</text>
	<text style="text-anchor:middle;dominant-baseline:hanging;font-weight:bold;transform: translateY(140px) rotate(-90deg);"></text>
</g>
<g data-scenario="reference-scenario" class="data-series">	<path d="M 60.00,262.20L 80.36,257.00L 100.71,246.60L 121.07,236.20L 141.43,220.60L 161.79,207.60L 182.14,192.00L 202.50,173.80L 222.86,158.20L 243.21,142.60L 263.57,127.00L 283.93,114.00L 304.29,103.60L 324.64,93.20L 345.00,82.80L 365.36,75.00L 385.71,69.80L 406.07,62.00L 426.43,56.80L 446.79,54.20L 467.14,51.60L 487.50,49.00L 507.86,46.40L 528.21,43.80L 548.57,43.80L 568.93,43.80L 589.29,43.80L 609.64,41.20" id="NPg Reference Scenario" class="line" stroke="#ab1236" stroke-width="3" stroke-linecap="round"><title>NPg Reference Scenario</title></path>
	<circle cx="60.00" cy="262.20" data-y="3" data-x="2023" r="4" fill="#ab1236"><title>2023: 3</title></circle>
	<circle cx="80.36" cy="257.00" data-y="5" data-x="2024" r="4" fill="#ab1236"><title>2024: 5</title></circle>
	<circle cx="100.71" cy="246.60" data-y="9" data-x="2025" r="4" fill="#ab1236"><title>2025: 9</title></circle>
	<circle cx="121.07" cy="236.20" data-y="13" data-x="2026" r="4" fill="#ab1236"><title>2026: 13</title></circle>
	<circle cx="141.43" cy="220.60" data-y="19" data-x="2027" r="4" fill="#ab1236"><title>2027: 19</title></circle>
	<circle cx="161.79" cy="207.60" data-y="24" data-x="2028" r="4" fill="#ab1236"><title>2028: 24</title></circle>
	<circle cx="182.14" cy="192.00" data-y="30" data-x="2029" r="4" fill="#ab1236"><title>2029: 30</title></circle>
	<circle cx="202.50" cy="173.80" data-y="37" data-x="2030" r="4" fill="#ab1236"><title>2030: 37</title></circle>
	<circle cx="222.86" cy="158.20" data-y="43" data-x="2031" r="4" fill="#ab1236"><title>2031: 43</title></circle>
	<circle cx="243.21" cy="142.60" data-y="49" data-x="2032" r="4" fill="#ab1236"><title>2032: 49</title></circle>
	<circle cx="263.57" cy="127.00" data-y="55" data-x="2033" r="4" fill="#ab1236"><title>2033: 55</title></circle>
	<circle cx="283.93" cy="114.00" data-y="60" data-x="2034" r="4" fill="#ab1236"><title>2034: 60</title></circle>
	<circle cx="304.29" cy="103.60" data-y="64" data-x="2035" r="4" fill="#ab1236"><title>2035: 64</title></circle>
	<circle cx="324.64" cy="93.20" data-y="68" data-x="2036" r="4" fill="#ab1236"><title>2036: 68</title></circle>
	<circle cx="345.00" cy="82.80" data-y="72" data-x="2037" r="4" fill="#ab1236"><title>2037: 72</title></circle>
	<circle cx="365.36" cy="75.00" data-y="75" data-x="2038" r="4" fill="#ab1236"><title>2038: 75</title></circle>
	<circle cx="385.71" cy="69.80" data-y="77" data-x="2039" r="4" fill="#ab1236"><title>2039: 77</title></circle>
	<circle cx="406.07" cy="62.00" data-y="80" data-x="2040" r="4" fill="#ab1236"><title>2040: 80</title></circle>
	<circle cx="426.43" cy="56.80" data-y="82" data-x="2041" r="4" fill="#ab1236"><title>2041: 82</title></circle>
	<circle cx="446.79" cy="54.20" data-y="83" data-x="2042" r="4" fill="#ab1236"><title>2042: 83</title></circle>
	<circle cx="467.14" cy="51.60" data-y="84" data-x="2043" r="4" fill="#ab1236"><title>2043: 84</title></circle>
	<circle cx="487.50" cy="49.00" data-y="85" data-x="2044" r="4" fill="#ab1236"><title>2044: 85</title></circle>
	<circle cx="507.86" cy="46.40" data-y="86" data-x="2045" r="4" fill="#ab1236"><title>2045: 86</title></circle>
	<circle cx="528.21" cy="43.80" data-y="87" data-x="2046" r="4" fill="#ab1236"><title>2046: 87</title></circle>
	<circle cx="548.57" cy="43.80" data-y="87" data-x="2047" r="4" fill="#ab1236"><title>2047: 87</title></circle>
	<circle cx="568.93" cy="43.80" data-y="87" data-x="2048" r="4" fill="#ab1236"><title>2048: 87</title></circle>
	<circle cx="589.29" cy="43.80" data-y="87" data-x="2049" r="4" fill="#ab1236"><title>2049: 87</title></circle>
	<circle cx="609.64" cy="41.20" data-y="88" data-x="2050" r="4" fill="#ab1236"><title>2050: 88</title></circle>
</g>
</svg>
