<svg width="640" height="320" viewBox="0 0 640 320" xmlns="http://www.w3.org/2000/svg" style="overflow:display" preserveAspectRatio="xMinYMin meet" overflow="visible">
<defs>
	<style>
	.data-series path.line { fill-opacity: 0; }
	.data-series path.line.dotted { stroke-dasharray: 12 20 }
	.data-series circle { display: none; }
	.data-series:hover path.line, .data-series.on path.line { stroke-width: 5; }
	.data-series:hover circle, .data-series.on circle { display: inline; }
	.data-series circle:hover, .data-series circle.on { r: 6px!important; fill: black; }
	.grid { font-family: "Helvetica Neue",Helvetica,Arial,"Lucida Grande",sans-serif; }
	.grid line { stroke: rgb(0,0,0); stroke-width: 2; stroke-linecap: round; }
	.grid.grid-x text { text-anchor: middle; dominant-baseline: hanging; transform: translateY(10px); }
	.grid.grid-y text { text-anchor: end; dominant-baseline: middle; transform: translateX(-10px); }
	</style>
</defs>
<g class="grid grid-y">
	<line x1="100" y1="270" x2="630" y2="270" data-left="100"></line>
	<text x="100" y="270" text-anchor="end">0</text>
	<text x="100" y="188.244135588957" text-anchor="end">5</text>
	<text x="100" y="106.488271177913" text-anchor="end">10</text>
	<text x="100" y="24.73240676687" text-anchor="end">15</text>
	<text style="text-anchor:middle;dominant-baseline:hanging;font-weight:bold;transform: translateY(140px) rotate(-90deg);">Annual peak demand (GW)</text>
</g>
<g class="grid grid-x">
	<line class="tick" x1="232.5" y1="270" x2="232.5" y2="275"></line>
	<text x="232.5" y="270" text-anchor="middle">2030</text>
	<line class="tick" x1="421.785714285714" y1="270" x2="421.785714285714" y2="275"></line>
	<text x="421.785714285714" y="270" text-anchor="middle">2040</text>
	<line class="tick" x1="611.071428571429" y1="270" x2="611.071428571429" y2="275"></line>
	<text x="611.071428571429" y="270" text-anchor="middle">2050</text>
	<text style="text-anchor:middle;dominant-baseline:hanging;font-weight:bold;transform: translateY(140px) rotate(-90deg);"></text>
</g>
<g data-scenario="electric-engagement" class="data-series">	<path d="M 100.00,166.79L 118.93,162.16L 137.86,158.01L 156.79,153.43L 175.71,146.03L 194.64,141.86L 213.57,138.49L 232.50,133.66L 251.43,130.43L 270.36,127.22L 289.29,124.18L 308.21,121.22L 327.14,114.50L 346.07,106.23L 365.00,98.59L 383.93,91.31L 402.86,84.48L 421.79,77.55L 440.71,72.18L 459.64,67.39L 478.57,62.77L 497.50,58.17L 516.43,53.22L 535.36,49.16L 554.29,45.42L 573.21,41.88L 592.14,38.42L 611.07,35.65" id="Electric Engagement" class="line" stroke="#F26522" stroke-width="3" stroke-linecap="round"><title>Electric Engagement</title></path>
	<circle cx="100.00" cy="166.79" data-y="6.312" data-x="2023" r="4" fill="#F26522"><title>2023: 6.312</title></circle>
	<circle cx="118.93" cy="162.16" data-y="6.595" data-x="2024" r="4" fill="#F26522"><title>2024: 6.595</title></circle>
	<circle cx="137.86" cy="158.01" data-y="6.849" data-x="2025" r="4" fill="#F26522"><title>2025: 6.849</title></circle>
	<circle cx="156.79" cy="153.43" data-y="7.129" data-x="2026" r="4" fill="#F26522"><title>2026: 7.129</title></circle>
	<circle cx="175.71" cy="146.03" data-y="7.582" data-x="2027" r="4" fill="#F26522"><title>2027: 7.582</title></circle>
	<circle cx="194.64" cy="141.86" data-y="7.837" data-x="2028" r="4" fill="#F26522"><title>2028: 7.837</title></circle>
	<circle cx="213.57" cy="138.49" data-y="8.043" data-x="2029" r="4" fill="#F26522"><title>2029: 8.043</title></circle>
	<circle cx="232.50" cy="133.66" data-y="8.338" data-x="2030" r="4" fill="#F26522"><title>2030: 8.338</title></circle>
	<circle cx="251.43" cy="130.43" data-y="8.536" data-x="2031" r="4" fill="#F26522"><title>2031: 8.536</title></circle>
	<circle cx="270.36" cy="127.22" data-y="8.732" data-x="2032" r="4" fill="#F26522"><title>2032: 8.732</title></circle>
	<circle cx="289.29" cy="124.18" data-y="8.918" data-x="2033" r="4" fill="#F26522"><title>2033: 8.918</title></circle>
	<circle cx="308.21" cy="121.22" data-y="9.099" data-x="2034" r="4" fill="#F26522"><title>2034: 9.099</title></circle>
	<circle cx="327.14" cy="114.50" data-y="9.510" data-x="2035" r="4" fill="#F26522"><title>2035: 9.510</title></circle>
	<circle cx="346.07" cy="106.23" data-y="10.016" data-x="2036" r="4" fill="#F26522"><title>2036: 10.016</title></circle>
	<circle cx="365.00" cy="98.59" data-y="10.483" data-x="2037" r="4" fill="#F26522"><title>2037: 10.483</title></circle>
	<circle cx="383.93" cy="91.31" data-y="10.928" data-x="2038" r="4" fill="#F26522"><title>2038: 10.928</title></circle>
	<circle cx="402.86" cy="84.48" data-y="11.346" data-x="2039" r="4" fill="#F26522"><title>2039: 11.346</title></circle>
	<circle cx="421.79" cy="77.55" data-y="11.770" data-x="2040" r="4" fill="#F26522"><title>2040: 11.770</title></circle>
	<circle cx="440.71" cy="72.18" data-y="12.098" data-x="2041" r="4" fill="#F26522"><title>2041: 12.098</title></circle>
	<circle cx="459.64" cy="67.39" data-y="12.391" data-x="2042" r="4" fill="#F26522"><title>2042: 12.391</title></circle>
	<circle cx="478.57" cy="62.77" data-y="12.674" data-x="2043" r="4" fill="#F26522"><title>2043: 12.674</title></circle>
	<circle cx="497.50" cy="58.17" data-y="12.955" data-x="2044" r="4" fill="#F26522"><title>2044: 12.955</title></circle>
	<circle cx="516.43" cy="53.22" data-y="13.258" data-x="2045" r="4" fill="#F26522"><title>2045: 13.258</title></circle>
	<circle cx="535.36" cy="49.16" data-y="13.506" data-x="2046" r="4" fill="#F26522"><title>2046: 13.506</title></circle>
	<circle cx="554.29" cy="45.42" data-y="13.735" data-x="2047" r="4" fill="#F26522"><title>2047: 13.735</title></circle>
	<circle cx="573.21" cy="41.88" data-y="13.951" data-x="2048" r="4" fill="#F26522"><title>2048: 13.951</title></circle>
	<circle cx="592.14" cy="38.42" data-y="14.163" data-x="2049" r="4" fill="#F26522"><title>2049: 14.163</title></circle>
	<circle cx="611.07" cy="35.65" data-y="14.332" data-x="2050" r="4" fill="#F26522"><title>2050: 14.332</title></circle>
</g>
<g data-scenario="hydrogen-evolution" class="data-series">	<path d="M 100.00,166.25L 118.93,161.38L 137.86,156.83L 156.79,151.98L 175.71,144.59L 194.64,140.58L 213.57,137.31L 232.50,132.42L 251.43,129.05L 270.36,125.73L 289.29,122.50L 308.21,119.29L 327.14,111.79L 346.07,101.55L 365.00,91.97L 383.93,82.78L 402.86,74.05L 421.79,65.27L 440.71,57.43L 459.64,49.98L 478.57,42.83L 497.50,36.11L 516.43,29.77L 535.36,24.99L 554.29,20.66L 573.21,16.41L 592.14,12.73L 611.07,10.00" id="Hydrogen Evolution" class="line" stroke="#0079C1" stroke-width="3" stroke-linecap="round"><title>Hydrogen Evolution</title></path>
	<circle cx="100.00" cy="166.25" data-y="6.345" data-x="2023" r="4" fill="#0079C1"><title>2023: 6.345</title></circle>
	<circle cx="118.93" cy="161.38" data-y="6.643" data-x="2024" r="4" fill="#0079C1"><title>2024: 6.643</title></circle>
	<circle cx="137.86" cy="156.83" data-y="6.921" data-x="2025" r="4" fill="#0079C1"><title>2025: 6.921</title></circle>
	<circle cx="156.79" cy="151.98" data-y="7.218" data-x="2026" r="4" fill="#0079C1"><title>2026: 7.218</title></circle>
	<circle cx="175.71" cy="144.59" data-y="7.670" data-x="2027" r="4" fill="#0079C1"><title>2027: 7.670</title></circle>
	<circle cx="194.64" cy="140.58" data-y="7.915" data-x="2028" r="4" fill="#0079C1"><title>2028: 7.915</title></circle>
	<circle cx="213.57" cy="137.31" data-y="8.115" data-x="2029" r="4" fill="#0079C1"><title>2029: 8.115</title></circle>
	<circle cx="232.50" cy="132.42" data-y="8.414" data-x="2030" r="4" fill="#0079C1"><title>2030: 8.414</title></circle>
	<circle cx="251.43" cy="129.05" data-y="8.620" data-x="2031" r="4" fill="#0079C1"><title>2031: 8.620</title></circle>
	<circle cx="270.36" cy="125.73" data-y="8.823" data-x="2032" r="4" fill="#0079C1"><title>2032: 8.823</title></circle>
	<circle cx="289.29" cy="122.50" data-y="9.021" data-x="2033" r="4" fill="#0079C1"><title>2033: 9.021</title></circle>
	<circle cx="308.21" cy="119.29" data-y="9.217" data-x="2034" r="4" fill="#0079C1"><title>2034: 9.217</title></circle>
	<circle cx="327.14" cy="111.79" data-y="9.676" data-x="2035" r="4" fill="#0079C1"><title>2035: 9.676</title></circle>
	<circle cx="346.07" cy="101.55" data-y="10.302" data-x="2036" r="4" fill="#0079C1"><title>2036: 10.302</title></circle>
	<circle cx="365.00" cy="91.97" data-y="10.888" data-x="2037" r="4" fill="#0079C1"><title>2037: 10.888</title></circle>
	<circle cx="383.93" cy="82.78" data-y="11.450" data-x="2038" r="4" fill="#0079C1"><title>2038: 11.450</title></circle>
	<circle cx="402.86" cy="74.05" data-y="11.984" data-x="2039" r="4" fill="#0079C1"><title>2039: 11.984</title></circle>
	<circle cx="421.79" cy="65.27" data-y="12.521" data-x="2040" r="4" fill="#0079C1"><title>2040: 12.521</title></circle>
	<circle cx="440.71" cy="57.43" data-y="13.000" data-x="2041" r="4" fill="#0079C1"><title>2041: 13.000</title></circle>
	<circle cx="459.64" cy="49.98" data-y="13.456" data-x="2042" r="4" fill="#0079C1"><title>2042: 13.456</title></circle>
	<circle cx="478.57" cy="42.83" data-y="13.893" data-x="2043" r="4" fill="#0079C1"><title>2043: 13.893</title></circle>
	<circle cx="497.50" cy="36.11" data-y="14.304" data-x="2044" r="4" fill="#0079C1"><title>2044: 14.304</title></circle>
	<circle cx="516.43" cy="29.77" data-y="14.692" data-x="2045" r="4" fill="#0079C1"><title>2045: 14.692</title></circle>
	<circle cx="535.36" cy="24.99" data-y="14.984" data-x="2046" r="4" fill="#0079C1"><title>2046: 14.984</title></circle>
	<circle cx="554.29" cy="20.66" data-y="15.249" data-x="2047" r="4" fill="#0079C1"><title>2047: 15.249</title></circle>
	<circle cx="573.21" cy="16.41" data-y="15.509" data-x="2048" r="4" fill="#0079C1"><title>2048: 15.509</title></circle>
	<circle cx="592.14" cy="12.73" data-y="15.734" data-x="2049" r="4" fill="#0079C1"><title>2049: 15.734</title></circle>
	<circle cx="611.07" cy="10.00" data-y="15.901" data-x="2050" r="4" fill="#0079C1"><title>2050: 15.901</title></circle>
</g>
<g data-scenario="holistic-transition" class="data-series">	<path d="M 100.00,166.79L 118.93,162.18L 137.86,158.06L 156.79,153.50L 175.71,146.14L 194.64,142.00L 213.57,138.67L 232.50,133.88L 251.43,130.66L 270.36,127.50L 289.29,124.49L 308.21,121.60L 327.14,114.97L 346.07,107.11L 365.00,99.92L 383.93,93.08L 402.86,86.70L 421.79,80.24L 440.71,75.81L 459.64,71.89L 478.57,68.08L 497.50,64.29L 516.43,60.03L 535.36,56.57L 554.29,53.45L 573.21,50.50L 592.14,47.67L 611.07,45.40" id="Holistic Transition" class="line" stroke="#C2CD23" stroke-width="3" stroke-linecap="round"><title>Holistic Transition</title></path>
	<circle cx="100.00" cy="166.79" data-y="6.312" data-x="2023" r="4" fill="#C2CD23"><title>2023: 6.312</title></circle>
	<circle cx="118.93" cy="162.18" data-y="6.594" data-x="2024" r="4" fill="#C2CD23"><title>2024: 6.594</title></circle>
	<circle cx="137.86" cy="158.06" data-y="6.846" data-x="2025" r="4" fill="#C2CD23"><title>2025: 6.846</title></circle>
	<circle cx="156.79" cy="153.50" data-y="7.125" data-x="2026" r="4" fill="#C2CD23"><title>2026: 7.125</title></circle>
	<circle cx="175.71" cy="146.14" data-y="7.575" data-x="2027" r="4" fill="#C2CD23"><title>2027: 7.575</title></circle>
	<circle cx="194.64" cy="142.00" data-y="7.828" data-x="2028" r="4" fill="#C2CD23"><title>2028: 7.828</title></circle>
	<circle cx="213.57" cy="138.67" data-y="8.032" data-x="2029" r="4" fill="#C2CD23"><title>2029: 8.032</title></circle>
	<circle cx="232.50" cy="133.88" data-y="8.325" data-x="2030" r="4" fill="#C2CD23"><title>2030: 8.325</title></circle>
	<circle cx="251.43" cy="130.66" data-y="8.522" data-x="2031" r="4" fill="#C2CD23"><title>2031: 8.522</title></circle>
	<circle cx="270.36" cy="127.50" data-y="8.715" data-x="2032" r="4" fill="#C2CD23"><title>2032: 8.715</title></circle>
	<circle cx="289.29" cy="124.49" data-y="8.899" data-x="2033" r="4" fill="#C2CD23"><title>2033: 8.899</title></circle>
	<circle cx="308.21" cy="121.60" data-y="9.076" data-x="2034" r="4" fill="#C2CD23"><title>2034: 9.076</title></circle>
	<circle cx="327.14" cy="114.97" data-y="9.481" data-x="2035" r="4" fill="#C2CD23"><title>2035: 9.481</title></circle>
	<circle cx="346.07" cy="107.11" data-y="9.962" data-x="2036" r="4" fill="#C2CD23"><title>2036: 9.962</title></circle>
	<circle cx="365.00" cy="99.92" data-y="10.402" data-x="2037" r="4" fill="#C2CD23"><title>2037: 10.402</title></circle>
	<circle cx="383.93" cy="93.08" data-y="10.820" data-x="2038" r="4" fill="#C2CD23"><title>2038: 10.820</title></circle>
	<circle cx="402.86" cy="86.70" data-y="11.210" data-x="2039" r="4" fill="#C2CD23"><title>2039: 11.210</title></circle>
	<circle cx="421.79" cy="80.24" data-y="11.605" data-x="2040" r="4" fill="#C2CD23"><title>2040: 11.605</title></circle>
	<circle cx="440.71" cy="75.81" data-y="11.876" data-x="2041" r="4" fill="#C2CD23"><title>2041: 11.876</title></circle>
	<circle cx="459.64" cy="71.89" data-y="12.116" data-x="2042" r="4" fill="#C2CD23"><title>2042: 12.116</title></circle>
	<circle cx="478.57" cy="68.08" data-y="12.349" data-x="2043" r="4" fill="#C2CD23"><title>2043: 12.349</title></circle>
	<circle cx="497.50" cy="64.29" data-y="12.581" data-x="2044" r="4" fill="#C2CD23"><title>2044: 12.581</title></circle>
	<circle cx="516.43" cy="60.03" data-y="12.841" data-x="2045" r="4" fill="#C2CD23"><title>2045: 12.841</title></circle>
	<circle cx="535.36" cy="56.57" data-y="13.053" data-x="2046" r="4" fill="#C2CD23"><title>2046: 13.053</title></circle>
	<circle cx="554.29" cy="53.45" data-y="13.244" data-x="2047" r="4" fill="#C2CD23"><title>2047: 13.244</title></circle>
	<circle cx="573.21" cy="50.50" data-y="13.424" data-x="2048" r="4" fill="#C2CD23"><title>2048: 13.424</title></circle>
	<circle cx="592.14" cy="47.67" data-y="13.597" data-x="2049" r="4" fill="#C2CD23"><title>2049: 13.597</title></circle>
	<circle cx="611.07" cy="45.40" data-y="13.736" data-x="2050" r="4" fill="#C2CD23"><title>2050: 13.736</title></circle>
</g>
<g data-scenario="counterfactual" class="data-series">	<path d="M 100.00,166.14L 118.93,161.23L 137.86,157.03L 156.79,152.45L 175.71,145.22L 194.64,141.69L 213.57,138.98L 232.50,134.32L 251.43,131.03L 270.36,127.70L 289.29,124.43L 308.21,121.14L 327.14,115.63L 346.07,112.28L 365.00,108.99L 383.93,105.74L 402.86,102.58L 421.79,99.02L 440.71,96.19L 459.64,93.59L 478.57,91.07L 497.50,88.81L 516.43,86.49L 535.36,85.00L 554.29,83.65L 573.21,82.37L 592.14,81.19L 611.07,80.13" id="Counterfactual" class="line" stroke="#454546" stroke-width="3" stroke-linecap="round"><title>Counterfactual</title></path>
	<circle cx="100.00" cy="166.14" data-y="6.352" data-x="2023" r="4" fill="#454546"><title>2023: 6.352</title></circle>
	<circle cx="118.93" cy="161.23" data-y="6.652" data-x="2024" r="4" fill="#454546"><title>2024: 6.652</title></circle>
	<circle cx="137.86" cy="157.03" data-y="6.909" data-x="2025" r="4" fill="#454546"><title>2025: 6.909</title></circle>
	<circle cx="156.79" cy="152.45" data-y="7.189" data-x="2026" r="4" fill="#454546"><title>2026: 7.189</title></circle>
	<circle cx="175.71" cy="145.22" data-y="7.631" data-x="2027" r="4" fill="#454546"><title>2027: 7.631</title></circle>
	<circle cx="194.64" cy="141.69" data-y="7.847" data-x="2028" r="4" fill="#454546"><title>2028: 7.847</title></circle>
	<circle cx="213.57" cy="138.98" data-y="8.013" data-x="2029" r="4" fill="#454546"><title>2029: 8.013</title></circle>
	<circle cx="232.50" cy="134.32" data-y="8.298" data-x="2030" r="4" fill="#454546"><title>2030: 8.298</title></circle>
	<circle cx="251.43" cy="131.03" data-y="8.499" data-x="2031" r="4" fill="#454546"><title>2031: 8.499</title></circle>
	<circle cx="270.36" cy="127.70" data-y="8.703" data-x="2032" r="4" fill="#454546"><title>2032: 8.703</title></circle>
	<circle cx="289.29" cy="124.43" data-y="8.903" data-x="2033" r="4" fill="#454546"><title>2033: 8.903</title></circle>
	<circle cx="308.21" cy="121.14" data-y="9.104" data-x="2034" r="4" fill="#454546"><title>2034: 9.104</title></circle>
	<circle cx="327.14" cy="115.63" data-y="9.441" data-x="2035" r="4" fill="#454546"><title>2035: 9.441</title></circle>
	<circle cx="346.07" cy="112.28" data-y="9.646" data-x="2036" r="4" fill="#454546"><title>2036: 9.646</title></circle>
	<circle cx="365.00" cy="108.99" data-y="9.847" data-x="2037" r="4" fill="#454546"><title>2037: 9.847</title></circle>
	<circle cx="383.93" cy="105.74" data-y="10.046" data-x="2038" r="4" fill="#454546"><title>2038: 10.046</title></circle>
	<circle cx="402.86" cy="102.58" data-y="10.239" data-x="2039" r="4" fill="#454546"><title>2039: 10.239</title></circle>
	<circle cx="421.79" cy="99.02" data-y="10.457" data-x="2040" r="4" fill="#454546"><title>2040: 10.457</title></circle>
	<circle cx="440.71" cy="96.19" data-y="10.630" data-x="2041" r="4" fill="#454546"><title>2041: 10.630</title></circle>
	<circle cx="459.64" cy="93.59" data-y="10.789" data-x="2042" r="4" fill="#454546"><title>2042: 10.789</title></circle>
	<circle cx="478.57" cy="91.07" data-y="10.943" data-x="2043" r="4" fill="#454546"><title>2043: 10.943</title></circle>
	<circle cx="497.50" cy="88.81" data-y="11.081" data-x="2044" r="4" fill="#454546"><title>2044: 11.081</title></circle>
	<circle cx="516.43" cy="86.49" data-y="11.223" data-x="2045" r="4" fill="#454546"><title>2045: 11.223</title></circle>
	<circle cx="535.36" cy="85.00" data-y="11.314" data-x="2046" r="4" fill="#454546"><title>2046: 11.314</title></circle>
	<circle cx="554.29" cy="83.65" data-y="11.397" data-x="2047" r="4" fill="#454546"><title>2047: 11.397</title></circle>
	<circle cx="573.21" cy="82.37" data-y="11.475" data-x="2048" r="4" fill="#454546"><title>2048: 11.475</title></circle>
	<circle cx="592.14" cy="81.19" data-y="11.547" data-x="2049" r="4" fill="#454546"><title>2049: 11.547</title></circle>
	<circle cx="611.07" cy="80.13" data-y="11.612" data-x="2050" r="4" fill="#454546"><title>2050: 11.612</title></circle>
</g>
<g data-scenario="reference-scenario" class="data-series">	<path d="M 100.00,166.79L 118.93,161.92L 137.86,157.10L 156.79,151.47L 175.71,143.10L 194.64,138.54L 213.57,135.18L 232.50,129.90L 251.43,126.22L 270.36,122.82L 289.29,119.67L 308.21,116.66L 327.14,110.05L 346.07,101.76L 365.00,94.22L 383.93,87.13L 402.86,80.60L 421.79,74.01L 440.71,68.65L 459.64,63.99L 478.57,59.56L 497.50,55.15L 516.43,50.37L 535.36,46.40L 554.29,42.64L 573.21,39.06L 592.14,35.56L 611.07,32.74" id="NPg Reference Scenario" class="line" stroke="#ab1236" stroke-width="3" stroke-linecap="round"><title>NPg Reference Scenario</title></path>
	<circle cx="100.00" cy="166.79" data-y="6.312" data-x="2023" r="4" fill="#ab1236"><title>2023: 6.312</title></circle>
	<circle cx="118.93" cy="161.92" data-y="6.610" data-x="2024" r="4" fill="#ab1236"><title>2024: 6.610</title></circle>
	<circle cx="137.86" cy="157.10" data-y="6.905" data-x="2025" r="4" fill="#ab1236"><title>2025: 6.905</title></circle>
	<circle cx="156.79" cy="151.47" data-y="7.249" data-x="2026" r="4" fill="#ab1236"><title>2026: 7.249</title></circle>
	<circle cx="175.71" cy="143.10" data-y="7.761" data-x="2027" r="4" fill="#ab1236"><title>2027: 7.761</title></circle>
	<circle cx="194.64" cy="138.54" data-y="8.040" data-x="2028" r="4" fill="#ab1236"><title>2028: 8.040</title></circle>
	<circle cx="213.57" cy="135.18" data-y="8.245" data-x="2029" r="4" fill="#ab1236"><title>2029: 8.245</title></circle>
	<circle cx="232.50" cy="129.90" data-y="8.568" data-x="2030" r="4" fill="#ab1236"><title>2030: 8.568</title></circle>
	<circle cx="251.43" cy="126.22" data-y="8.793" data-x="2031" r="4" fill="#ab1236"><title>2031: 8.793</title></circle>
	<circle cx="270.36" cy="122.82" data-y="9.001" data-x="2032" r="4" fill="#ab1236"><title>2032: 9.001</title></circle>
	<circle cx="289.29" cy="119.67" data-y="9.194" data-x="2033" r="4" fill="#ab1236"><title>2033: 9.194</title></circle>
	<circle cx="308.21" cy="116.66" data-y="9.378" data-x="2034" r="4" fill="#ab1236"><title>2034: 9.378</title></circle>
	<circle cx="327.14" cy="110.05" data-y="9.782" data-x="2035" r="4" fill="#ab1236"><title>2035: 9.782</title></circle>
	<circle cx="346.07" cy="101.76" data-y="10.289" data-x="2036" r="4" fill="#ab1236"><title>2036: 10.289</title></circle>
	<circle cx="365.00" cy="94.22" data-y="10.750" data-x="2037" r="4" fill="#ab1236"><title>2037: 10.750</title></circle>
	<circle cx="383.93" cy="87.13" data-y="11.184" data-x="2038" r="4" fill="#ab1236"><title>2038: 11.184</title></circle>
	<circle cx="402.86" cy="80.60" data-y="11.583" data-x="2039" r="4" fill="#ab1236"><title>2039: 11.583</title></circle>
	<circle cx="421.79" cy="74.01" data-y="11.986" data-x="2040" r="4" fill="#ab1236"><title>2040: 11.986</title></circle>
	<circle cx="440.71" cy="68.65" data-y="12.314" data-x="2041" r="4" fill="#ab1236"><title>2041: 12.314</title></circle>
	<circle cx="459.64" cy="63.99" data-y="12.599" data-x="2042" r="4" fill="#ab1236"><title>2042: 12.599</title></circle>
	<circle cx="478.57" cy="59.56" data-y="12.870" data-x="2043" r="4" fill="#ab1236"><title>2043: 12.870</title></circle>
	<circle cx="497.50" cy="55.15" data-y="13.140" data-x="2044" r="4" fill="#ab1236"><title>2044: 13.140</title></circle>
	<circle cx="516.43" cy="50.37" data-y="13.432" data-x="2045" r="4" fill="#ab1236"><title>2045: 13.432</title></circle>
	<circle cx="535.36" cy="46.40" data-y="13.675" data-x="2046" r="4" fill="#ab1236"><title>2046: 13.675</title></circle>
	<circle cx="554.29" cy="42.64" data-y="13.905" data-x="2047" r="4" fill="#ab1236"><title>2047: 13.905</title></circle>
	<circle cx="573.21" cy="39.06" data-y="14.124" data-x="2048" r="4" fill="#ab1236"><title>2048: 14.124</title></circle>
	<circle cx="592.14" cy="35.56" data-y="14.338" data-x="2049" r="4" fill="#ab1236"><title>2049: 14.338</title></circle>
	<circle cx="611.07" cy="32.74" data-y="14.510" data-x="2050" r="4" fill="#ab1236"><title>2050: 14.510</title></circle>
</g>
<g data-scenario="reference-scenario-flexible" class="data-series">	<path d="M 100.00,166.15L 118.93,160.84L 137.86,155.39L 156.79,148.94L 175.71,139.70L 194.64,134.22L 213.57,129.92L 232.50,123.62L 251.43,118.98L 270.36,114.75L 289.29,110.80L 308.21,107.08L 327.14,99.70L 346.07,90.64L 365.00,82.44L 383.93,74.72L 402.86,67.64L 421.79,60.56L 440.71,54.79L 459.64,49.77L 478.57,45.01L 497.50,40.33L 516.43,35.33L 535.36,31.17L 554.29,27.27L 573.21,23.57L 592.14,19.96L 611.07,17.06" id="NPg Reference Scenario Without Customer Flexibility" class="line dotted" stroke="#ab1236" stroke-width="3" stroke-linecap="round"><title>NPg Reference Scenario Without Customer Flexibility</title></path>
	<circle cx="100.00" cy="166.15" data-y="6.351" data-x="2023" r="4" fill="#ab1236"><title>2023: 6.351</title></circle>
	<circle cx="118.93" cy="160.84" data-y="6.676" data-x="2024" r="4" fill="#ab1236"><title>2024: 6.676</title></circle>
	<circle cx="137.86" cy="155.39" data-y="7.009" data-x="2025" r="4" fill="#ab1236"><title>2025: 7.009</title></circle>
	<circle cx="156.79" cy="148.94" data-y="7.404" data-x="2026" r="4" fill="#ab1236"><title>2026: 7.404</title></circle>
	<circle cx="175.71" cy="139.70" data-y="7.969" data-x="2027" r="4" fill="#ab1236"><title>2027: 7.969</title></circle>
	<circle cx="194.64" cy="134.22" data-y="8.304" data-x="2028" r="4" fill="#ab1236"><title>2028: 8.304</title></circle>
	<circle cx="213.57" cy="129.92" data-y="8.567" data-x="2029" r="4" fill="#ab1236"><title>2029: 8.567</title></circle>
	<circle cx="232.50" cy="123.62" data-y="8.952" data-x="2030" r="4" fill="#ab1236"><title>2030: 8.952</title></circle>
	<circle cx="251.43" cy="118.98" data-y="9.236" data-x="2031" r="4" fill="#ab1236"><title>2031: 9.236</title></circle>
	<circle cx="270.36" cy="114.75" data-y="9.495" data-x="2032" r="4" fill="#ab1236"><title>2032: 9.495</title></circle>
	<circle cx="289.29" cy="110.80" data-y="9.736" data-x="2033" r="4" fill="#ab1236"><title>2033: 9.736</title></circle>
	<circle cx="308.21" cy="107.08" data-y="9.964" data-x="2034" r="4" fill="#ab1236"><title>2034: 9.964</title></circle>
	<circle cx="327.14" cy="99.70" data-y="10.415" data-x="2035" r="4" fill="#ab1236"><title>2035: 10.415</title></circle>
	<circle cx="346.07" cy="90.64" data-y="10.969" data-x="2036" r="4" fill="#ab1236"><title>2036: 10.969</title></circle>
	<circle cx="365.00" cy="82.44" data-y="11.471" data-x="2037" r="4" fill="#ab1236"><title>2037: 11.471</title></circle>
	<circle cx="383.93" cy="74.72" data-y="11.943" data-x="2038" r="4" fill="#ab1236"><title>2038: 11.943</title></circle>
	<circle cx="402.86" cy="67.64" data-y="12.376" data-x="2039" r="4" fill="#ab1236"><title>2039: 12.376</title></circle>
	<circle cx="421.79" cy="60.56" data-y="12.809" data-x="2040" r="4" fill="#ab1236"><title>2040: 12.809</title></circle>
	<circle cx="440.71" cy="54.79" data-y="13.162" data-x="2041" r="4" fill="#ab1236"><title>2041: 13.162</title></circle>
	<circle cx="459.64" cy="49.77" data-y="13.469" data-x="2042" r="4" fill="#ab1236"><title>2042: 13.469</title></circle>
	<circle cx="478.57" cy="45.01" data-y="13.760" data-x="2043" r="4" fill="#ab1236"><title>2043: 13.760</title></circle>
	<circle cx="497.50" cy="40.33" data-y="14.046" data-x="2044" r="4" fill="#ab1236"><title>2044: 14.046</title></circle>
	<circle cx="516.43" cy="35.33" data-y="14.352" data-x="2045" r="4" fill="#ab1236"><title>2045: 14.352</title></circle>
	<circle cx="535.36" cy="31.17" data-y="14.606" data-x="2046" r="4" fill="#ab1236"><title>2046: 14.606</title></circle>
	<circle cx="554.29" cy="27.27" data-y="14.845" data-x="2047" r="4" fill="#ab1236"><title>2047: 14.845</title></circle>
	<circle cx="573.21" cy="23.57" data-y="15.071" data-x="2048" r="4" fill="#ab1236"><title>2048: 15.071</title></circle>
	<circle cx="592.14" cy="19.96" data-y="15.292" data-x="2049" r="4" fill="#ab1236"><title>2049: 15.292</title></circle>
	<circle cx="611.07" cy="17.06" data-y="15.469" data-x="2050" r="4" fill="#ab1236"><title>2050: 15.469</title></circle>
</g>
</svg>
